<svg width="955" height="324" viewBox="0 0 955 324" fill="none" xmlns="http://www.w3.org/2000/svg">
<g clip-path="url(#clip0_1743_671)">
<path fill-rule="evenodd" clip-rule="evenodd" d="M230.594 238.309V76.8931H193.762L99.9812 238.309H136.842L196.048 136.385V207.534L195.962 238.309H230.594Z" fill="white"/>
<path fill-rule="evenodd" clip-rule="evenodd" d="M34.5463 239.738V187.647H65.9779C72.8021 187.637 79.555 186.259 85.8373 183.594C92.1196 180.929 97.8035 177.031 102.553 172.131C107.84 167.103 112.012 161.019 114.798 154.276C117.584 147.532 118.922 140.278 118.726 132.984C119.003 125.571 117.658 118.186 114.786 111.345C111.913 104.505 107.583 98.3741 102.096 93.3806C91.1232 83.4368 79.2364 78.3506 65.9779 78.3506H0V110.782H63.9491C68.9888 110.918 73.8256 112.796 77.6362 116.097C81.8938 119.583 84.1226 125.127 84.1226 132.984C84.1226 140.842 81.8938 146.672 77.6362 150.129C73.8136 153.381 68.9676 155.182 63.9491 155.215H0V239.738H34.5463Z" fill="white"/>
<path fill-rule="evenodd" clip-rule="evenodd" d="M679.495 238.309V184.59H702.612L735.129 238.309H774.162L736.044 175.989C752.845 168.588 763.847 150.786 763.847 130.27C764.025 123.227 762.718 116.226 760.01 109.722C757.303 103.219 753.255 97.3584 748.131 92.5235C743.29 87.4999 737.464 83.5291 731.018 80.8594C724.573 78.1896 717.645 76.8784 710.67 77.0077H645.149V109.325H709.784C720.757 109.325 729.3 118.383 729.3 130.613C729.3 144.271 720.328 153.072 706.87 153.072H645.149V238.309H679.495Z" fill="white"/>
<path fill-rule="evenodd" clip-rule="evenodd" d="M304.887 238.795C342.433 238.795 361.721 219.85 361.721 190.961C361.721 168.502 350.491 155.272 322.489 144.471C318.774 142.928 314.316 141.385 309.259 139.556L298.258 135.727C296.286 134.842 293.857 133.727 291.428 132.356C289.443 131.284 287.819 129.648 286.761 127.655C285.703 125.662 285.259 123.4 285.485 121.155C285.485 114.954 290.514 110.211 298.715 108.782H361.578V77.3503H303.087C289.921 76.9707 277.045 81.2625 266.74 89.4658C261.914 93.2639 258.059 98.1531 255.49 103.732C252.922 109.31 251.715 115.419 251.967 121.555C251.967 145.128 265.197 157.93 289.114 166.93C293.514 168.702 302.344 171.617 306.058 173.188C310.721 174.511 315.175 176.483 319.288 179.046C324.374 182.161 327.661 186.218 327.661 192.047C327.661 199.505 321.946 206.02 309.459 207.334H251.967V238.766L304.887 238.795Z" fill="white"/>
<path fill-rule="evenodd" clip-rule="evenodd" d="M622.575 238.795V206.363H548.768V171.874H622.575V140.156H548.768V109.325H622.575V76.8931H514.336V238.795H622.575Z" fill="white"/>
<path fill-rule="evenodd" clip-rule="evenodd" d="M864.513 241.566C824.137 241.566 790.506 211.706 783.219 172.245H817.223C820.34 182.4 826.609 191.299 835.122 197.654C843.634 204.009 853.948 207.489 864.57 207.592C892.087 207.592 914.404 184.561 914.404 156.158C914.404 127.755 892.087 104.725 864.57 104.725C853.955 104.823 843.646 108.295 835.135 114.639C826.624 120.983 820.35 129.869 817.223 140.014H783.219C790.506 100.524 824.137 70.6641 864.513 70.6641C910.232 70.6641 947.378 108.925 947.378 156.101C947.378 203.277 910.232 241.566 864.513 241.566Z" fill="white"/>
<path fill-rule="evenodd" clip-rule="evenodd" d="M436.014 238.795C473.56 238.795 492.877 219.85 492.877 190.961C492.877 168.502 481.618 155.272 453.616 144.471C449.901 142.928 445.472 141.385 440.414 139.556L429.385 135.727C427.413 134.842 424.984 133.727 422.555 132.356C420.57 131.284 418.946 129.648 417.888 127.655C416.83 125.662 416.386 123.4 416.612 121.155C416.612 114.954 421.641 110.211 429.842 108.782H492.877V77.3504H434.328C421.153 76.9664 408.267 81.2583 397.953 89.4658C393.127 93.2639 389.271 98.1532 386.703 103.732C384.135 109.31 382.928 115.419 383.18 121.555C383.18 145.128 396.41 157.93 420.327 166.93C424.727 168.702 433.557 171.617 437.3 173.188C441.958 174.522 446.411 176.493 450.53 179.046C455.587 182.161 458.873 186.218 458.873 192.047C458.873 199.505 453.158 206.02 440.672 207.334H383.094V238.766L436.014 238.795Z" fill="white"/>
<path fill-rule="evenodd" clip-rule="evenodd" d="M8.57222 291.2C10.8988 291.2 13.13 292.124 14.7752 293.769C16.4203 295.414 17.3445 297.645 17.3445 299.972C17.3445 302.299 16.4203 304.53 14.7752 306.175C13.13 307.82 10.8988 308.744 8.57222 308.744C6.24566 308.744 4.01439 307.82 2.36927 306.175C0.724147 304.53 -0.200073 302.299 -0.200073 299.972C-0.200073 297.645 0.724147 295.414 2.36927 293.769C4.01439 292.124 6.24566 291.2 8.57222 291.2Z" fill="#FF9932"/>
<path fill-rule="evenodd" clip-rule="evenodd" d="M50.3192 291.2C52.0622 291.16 53.7775 291.641 55.2461 292.58C56.7148 293.52 57.8702 294.875 58.565 296.474C59.2597 298.073 59.4622 299.843 59.1467 301.558C58.8311 303.272 58.0118 304.854 56.7933 306.101C55.5748 307.348 54.0124 308.204 52.3055 308.559C50.5987 308.914 48.8247 308.752 47.2101 308.094C45.5955 307.437 44.2134 306.313 43.2404 304.866C42.2673 303.419 41.7474 301.716 41.747 299.972C41.7203 298.83 41.9223 297.694 42.3412 296.63C42.76 295.567 43.3872 294.598 44.1859 293.781C44.9846 292.964 45.9386 292.314 46.9919 291.871C48.0452 291.428 49.1765 291.2 50.3192 291.2Z" fill="#E6E6E6"/>
<path fill-rule="evenodd" clip-rule="evenodd" d="M92.1519 291.2C93.8948 291.16 95.6101 291.641 97.0788 292.58C98.5474 293.52 99.7029 294.875 100.398 296.474C101.092 298.073 101.295 299.843 100.979 301.558C100.664 303.272 99.8444 304.854 98.626 306.101C97.4075 307.348 95.8451 308.204 94.1382 308.559C92.4313 308.914 90.6573 308.752 89.0427 308.094C87.4281 307.437 86.0461 306.313 85.073 304.866C84.1 303.419 83.5801 301.716 83.5796 299.972C83.5529 298.83 83.755 297.694 84.1738 296.63C84.5927 295.567 85.2199 294.598 86.0185 293.781C86.8172 292.964 87.7713 292.314 88.8245 291.871C89.8778 291.428 91.0091 291.2 92.1519 291.2Z" fill="#128807"/>
<path fill-rule="evenodd" clip-rule="evenodd" d="M857.427 62.8631C859.227 62.4344 862.913 63.0059 865.028 62.8631C866.182 62.8149 867.33 62.6619 868.457 62.4059C869.004 62.2998 869.558 62.2234 870.114 62.1773C870.408 62.2069 870.705 62.2069 871 62.1773C871.285 62.1773 871.285 61.9201 871.657 61.9201H871.943C872.314 61.9201 872.343 62.3773 872.343 62.7488V81.2648H875.429V61.4629C875.429 60.3771 875.857 60.4914 876.657 60.2914L878.4 59.5199C879.466 58.906 880.585 58.3895 881.744 57.9769C881.744 57.6054 883.801 56.5767 884.201 56.3196C885.033 55.7969 885.825 55.2144 886.573 54.5765C887.144 53.9765 888.259 53.2907 888.773 52.6906C889.287 52.0906 890.144 51.3191 890.802 50.4904C892.135 49.0119 893.331 47.4146 894.373 45.7185C894.802 44.9756 895.373 43.6326 895.802 42.8611C896.231 42.0896 896.659 40.718 897.145 40.0037C897.327 39.038 897.565 38.0838 897.859 37.1463C898.038 36.6883 898.19 36.2209 898.317 35.7461C898.345 35.1911 898.403 34.638 898.488 34.0888C898.933 31.8883 899.019 29.6306 898.745 27.4025C898.745 27.1453 898.231 24.345 898.202 24.2879L897.259 21.4304C897.259 20.6875 897.259 18.573 897.259 17.8872C897.199 16.7857 897.075 15.6885 896.888 14.6012C896.44 10.8667 894.9 7.34768 892.459 4.48594C891.883 3.84312 891.262 3.24158 890.602 2.68576C890.144 2.34287 889.944 2.3143 889.516 1.99998C889.087 1.68566 888.573 1.51422 888.344 1.34277C886.554 0.489914 884.611 0.00413216 882.629 -0.0859375H881.058C879.157 0.143458 877.288 0.584327 875.486 1.22848C874.972 1.57137 873.743 1.94283 873.086 2.3143C872.289 2.62951 871.539 3.05255 870.857 3.57156C870.486 3.75932 870.132 3.97923 869.8 4.22877L868.857 4.9717C868.151 5.41847 867.507 5.95651 866.942 6.57185C866.228 7.28621 863.77 9.42928 863.77 10.4294C864.582 10.7562 865.365 11.148 866.113 11.6009L867.171 12.1724C867.657 12.4867 867.685 12.6296 868.228 12.9439C868.922 13.4175 869.555 13.974 870.114 14.6012C870.641 15.2626 871.092 15.9815 871.457 16.7443C871.143 16.7443 871 17.0586 870.743 17.23C870.48 17.3951 870.189 17.5113 869.885 17.5729C869.345 17.8386 868.837 18.1645 868.371 18.5444C867.375 19.2398 866.42 19.9936 865.513 20.8018C865.117 21.2067 864.697 21.5883 864.256 21.9448C863.713 22.3448 863.456 22.7449 862.942 23.1449C862.427 23.5449 861.227 24.8594 860.313 25.5166C859.399 26.1738 858.598 27.1739 857.77 27.8882C856.941 28.6026 855.97 29.4312 855.084 30.2313C854.198 31.0314 853.284 31.9743 852.512 32.5744L851.112 33.6888L849.769 34.8603C848.94 35.689 847.969 36.2319 847.083 37.0891C846.169 37.8624 845.215 38.5872 844.226 39.2607C843.854 39.4322 841.683 41.0038 841.368 41.2609C840.466 41.9967 839.511 42.6652 838.511 43.2611C836.453 44.4613 834.568 46.1186 832.51 47.1758C831.51 47.7759 830.424 48.5188 829.453 49.0046C828.481 49.4903 827.11 50.7476 826.195 50.7476C826.195 51.1762 826.195 50.9762 826.195 51.3476C826.195 51.7191 827.424 53.405 827.481 53.6907C829.559 52.6231 831.581 51.4501 833.539 50.1761C834.568 49.5475 835.482 48.9188 836.396 48.3188C836.711 48.1473 836.882 47.9187 837.082 47.8044C837.282 47.6901 837.454 47.633 837.825 47.3758C838.196 47.1187 839.225 46.6615 839.368 46.5186C841.192 45.0901 843.1 43.7733 845.083 42.5754C845.969 42.0324 846.969 41.1181 847.797 40.4894C848.626 39.8608 849.569 39.0893 850.655 38.375C852.484 36.9462 854.141 35.5175 855.884 33.9745C856.684 33.2887 857.627 32.3458 858.427 31.7172C859.227 31.0885 860.113 30.0599 860.942 29.4026C861.77 28.7454 862.627 27.7453 863.456 27.1167C864.285 26.4881 865.285 25.2594 865.971 24.8022C866.656 24.345 867.542 23.2306 868.542 22.5734C869.028 22.2305 869.257 21.7448 869.8 21.4019L871.228 20.4589L871.943 20.3161L872.314 20.6304C872.057 21.1733 871.828 23.0306 871.514 23.4878C871.2 23.945 870.771 25.1451 870.257 25.9452C869.351 27.5124 868.319 29.0032 867.171 30.4027L865.428 32.3744C864.885 32.9744 864.028 33.7745 863.599 34.2888C863.17 34.8032 862.342 35.5747 861.742 36.1462C861.099 36.783 860.422 37.384 859.713 37.9463C859.084 38.4035 858.284 39.2322 857.684 39.6036C857.084 39.9751 856.055 40.8323 855.598 41.2324C854.205 42.3627 852.756 43.4214 851.255 44.4041C850.582 44.978 849.876 45.5122 849.14 46.0043C848.769 46.2043 847.169 47.2044 846.883 47.433C846.597 47.6616 842.454 50.0332 842.368 50.2904C841.768 50.2904 837.796 52.9192 836.653 53.3764C836.411 53.4718 836.18 53.5966 835.968 53.7479C835.653 53.9765 835.568 53.9479 835.253 54.1479L833.796 54.9194C832.967 55.3195 831.596 55.9481 830.939 56.3767C830.024 56.9165 829.068 57.3846 828.081 57.7768C827.367 57.9769 827.224 58.2055 826.538 58.4341C825.852 58.6626 826.167 58.6912 825.852 58.8341C825.538 58.977 825.31 58.8341 825.024 59.0913L822.938 60.0056L821.366 60.6057C820.966 60.8629 818.309 61.5772 818.309 61.9487C818.309 62.3201 818.623 62.7488 818.68 63.2059C818.737 63.6631 818.68 64.1203 819.252 64.3775C819.823 64.6347 821.08 63.8917 821.738 63.7489C823.354 63.0423 825.015 62.441 826.71 61.9487C827.889 61.2549 829.111 60.6346 830.367 60.0914C831.596 59.5484 832.853 58.7769 834.025 58.2626C835.196 57.7483 836.425 56.9768 837.596 56.3481C838.759 55.6225 839.982 55.001 841.254 54.4908C841.454 54.1193 847.855 50.3475 848.826 49.6903C851.341 47.9473 853.798 46.3186 856.141 44.4613C857.113 43.6898 858.856 42.5182 859.627 41.6038C860.399 40.6895 860.827 40.6323 861.284 40.1751C861.742 39.7179 862.399 39.2036 862.97 38.6321C865.254 36.7223 867.289 34.5336 869.028 32.1172C869.828 32.1172 872.171 27.8311 872.714 26.9453C873.909 24.8485 874.64 22.5196 874.857 20.116L875.457 19.8874C875.907 20.0835 876.345 20.3029 876.772 20.5446C877.142 20.8382 877.495 21.1531 877.829 21.4876C878.2 21.9162 879.343 23.8593 879.515 23.9735C879.51 24.4961 879.648 25.01 879.915 25.4594C880.085 25.9876 880.191 26.5345 880.229 27.0881C880.52 28.2375 880.673 29.4173 880.686 30.6028C880.574 33.376 879.872 36.0935 878.629 38.575C878.063 39.5804 877.413 40.5363 876.686 41.4324C875.873 42.3097 874.984 43.1129 874.029 43.8326C872.075 45.3924 869.786 46.4781 867.342 47.0044C866.771 47.0044 866.142 47.4044 865.428 47.5187C864.713 47.633 864.028 47.5187 863.228 47.7759C861.799 48.0616 860.084 47.9187 858.741 48.2331V49.1474V50.4904C858.741 50.719 858.741 50.6904 858.941 50.8905C860.463 51.0048 861.991 51.0048 863.513 50.8905C864.256 50.7476 865.113 50.8905 865.771 50.6333C866.474 50.4666 867.192 50.3615 867.914 50.319C868.085 49.8618 869.028 49.8618 869.542 49.7475C870.057 49.6332 870.314 49.376 871.171 49.176C871.457 49.176 873.714 47.8616 874.029 47.6044C875.029 46.8901 875.686 46.6043 876.629 45.8042C877.572 45.0042 878.143 44.3184 878.915 43.5469C880.239 41.8182 881.369 39.9497 882.286 37.9749C883.128 35.4402 883.562 32.7879 883.572 30.117C883.698 27.9731 883.366 25.827 882.597 23.8217C881.828 21.8164 880.641 19.9979 879.115 18.4873L878 17.5444C877.56 17.3864 877.112 17.2528 876.657 17.1443C875.857 16.6586 874.4 17.1443 874.029 15.8013C873.657 14.4583 872.686 13.9726 873.686 12.9439C874.306 12.1355 874.763 11.2132 875.029 10.2294V9.48642C874.533 8.15092 873.871 6.88355 873.057 5.71463C875.471 4.1969 878.216 3.2852 881.058 3.05723H882.629C884.081 3.07514 885.511 3.40607 886.823 4.02743C888.135 4.64878 889.297 5.54592 890.23 6.65758C892.126 8.92092 893.274 11.716 893.516 14.6584H893.002C893.002 14.2869 892.373 13.9154 892.059 13.6297C891.654 13.318 891.224 13.0408 890.773 12.801C890.079 12.0883 889.255 11.5159 888.344 11.1152C887.83 10.9723 887.659 10.7437 887.001 10.4865C886.53 10.2633 886.155 9.87786 885.944 9.4007C885.688 8.95039 885.325 8.57087 884.886 8.29647C884.447 8.02207 883.946 7.86144 883.43 7.82912C882.78 7.93217 882.178 8.23086 881.703 8.68529C881.228 9.13972 880.904 9.72824 880.772 10.3722V11.4295C880.845 12.0984 881.151 12.7202 881.637 13.1855C882.123 13.6507 882.758 13.9294 883.43 13.9726C884.287 13.9726 884.544 13.4582 885.315 13.4582H885.801C886.196 13.6579 886.569 13.8973 886.916 14.1726C887.327 14.3495 887.727 14.5499 888.116 14.7727C888.601 15.1727 889.944 16.0299 890.059 16.5443C890.716 16.5443 892.087 18.5444 892.487 19.1159C893.245 20.1527 893.878 21.2748 894.373 22.4591C895.453 25.2502 895.892 28.2479 895.659 31.2314C895.67 32.755 895.478 34.2733 895.088 35.7461C894.764 37.0858 894.354 38.403 893.859 39.6894C893.708 40.3162 893.478 40.9211 893.173 41.4895C892.945 41.8896 892.945 42.0896 892.802 42.3468C892.61 42.5896 892.438 42.8476 892.287 43.1183C891.685 44.2118 891.007 45.262 890.259 46.2614C889.43 47.2901 888.916 48.0045 888.001 49.1189C887.087 50.2333 886.373 50.6904 885.401 51.662C883.521 53.2011 881.514 54.5776 879.401 55.7766C877.091 57.0095 874.646 57.9684 872.114 58.6341C871.419 58.8139 870.712 58.9475 870 59.0341C869.371 59.0341 868.799 59.4056 867.999 59.4913C867.199 59.577 866.428 59.4913 865.656 59.6342C864.905 59.8013 864.14 59.897 863.37 59.9199H860.77L853.855 59.2341C853.198 58.7769 851.512 58.8912 850.598 58.5198C850.312 58.5198 849.34 58.3769 848.855 58.2912C848.361 58.0952 847.855 57.9329 847.34 57.8054C846.298 57.5825 845.276 57.2768 844.283 56.891C843.74 56.6339 843.197 56.3196 843.054 57.0339C842.911 57.7483 842.511 58.0054 842.511 58.5198V59.0341C842.511 60.0056 843.911 59.8913 844.826 60.3485L847.683 61.12C849.686 61.7083 851.745 62.0818 853.827 62.2344L854.141 62.4916V62.8059C854.141 63.4631 848.426 78.7503 848.255 79.6075H851.312C851.512 78.6932 857.227 63.4917 857.427 62.8631Z" fill="#D6B990"/>
<path fill-rule="evenodd" clip-rule="evenodd" d="M841.939 77.6074C846.804 79.2232 851.964 79.75 857.055 79.1504C857.055 79.9505 856.884 80.722 856.827 81.5221C851.736 82.1283 846.574 81.6014 841.711 79.9791C841.768 79.179 841.854 78.4075 841.939 77.6074Z" fill="#D6B990"/>
<path fill-rule="evenodd" clip-rule="evenodd" d="M866.742 80.0079C871.837 80.5872 876.997 80.041 881.858 78.4077C881.858 79.1792 882.029 79.9793 882.087 80.7508C877.231 82.4083 872.066 82.9551 866.971 82.351C866.914 81.5794 866.828 80.7794 866.742 80.0079Z" fill="#D6B990"/>
<path d="M940.092 41.3468C943.013 41.2672 945.891 42.0605 948.358 43.6252C950.826 45.1899 952.77 47.4549 953.943 50.1306C955.117 52.8064 955.465 55.7712 954.944 58.6461C954.424 61.521 953.057 64.1752 951.02 66.2695C948.983 68.3637 946.367 69.8028 943.508 70.4027C940.649 71.0026 937.675 70.736 934.968 69.6371C932.261 68.5382 929.943 66.6569 928.311 64.2337C926.679 61.8105 925.806 58.9556 925.805 56.0339C925.775 54.1304 926.121 52.2396 926.823 50.4701C927.526 48.7007 928.571 47.0873 929.898 45.7227C931.226 44.3581 932.809 43.269 934.559 42.5181C936.308 41.7672 938.189 41.3691 940.092 41.3468Z" stroke="white" stroke-width="0.28"/>
<path fill-rule="evenodd" clip-rule="evenodd" d="M935.463 55.1484H939.721C940.436 55.1664 941.15 55.07 941.835 54.8626C942.317 54.6819 942.727 54.3514 943.007 53.9197C943.256 53.5058 943.384 53.0309 943.378 52.5481C943.393 52.2078 943.334 51.8683 943.206 51.5528C943.078 51.2372 942.883 50.953 942.635 50.7194C941.934 50.2075 941.072 49.9642 940.207 50.0336H935.463V55.1484ZM933.492 63.7206V48.3191H940.092C941.12 48.2708 942.147 48.4162 943.121 48.7477C943.836 49.0102 944.427 49.5299 944.779 50.205C945.198 50.9034 945.416 51.7047 945.407 52.5195C945.45 53.5697 945.081 54.5951 944.378 55.377C943.511 56.1955 942.394 56.6987 941.207 56.8057C941.631 57.0114 942.033 57.2603 942.407 57.5486C943.028 58.1684 943.575 58.8589 944.036 59.6059L946.607 63.8349H944.15L942.178 60.606C941.741 59.8759 941.264 59.1701 940.75 58.4915C940.475 58.0788 940.126 57.7204 939.721 57.4343C939.446 57.2606 939.147 57.1259 938.835 57.0343C938.464 57.0083 938.092 57.0083 937.721 57.0343H935.435V63.9207L933.492 63.7206Z" fill="white"/>
<path fill-rule="evenodd" clip-rule="evenodd" d="M945.635 277.684V283.399H920.433V296.029H944.807V301.744H920.433V316.431H946.35V322.146H914.918V277.684H945.635ZM861.913 298.915H877.229C878.168 298.977 879.108 298.806 879.966 298.417C880.823 298.028 881.571 297.434 882.143 296.686C883.34 294.796 883.91 292.576 883.772 290.343C883.773 289.457 883.667 288.574 883.458 287.714C883.261 286.919 882.89 286.177 882.372 285.542C881.812 284.878 881.109 284.351 880.315 283.999C879.335 283.604 878.284 283.419 877.229 283.456H861.941L861.913 298.915ZM856.427 277.684H877.229C879.247 277.636 881.254 278.015 883.115 278.799C884.595 279.456 885.913 280.431 886.972 281.656C887.954 282.85 888.683 284.23 889.116 285.714C889.548 287.19 889.769 288.719 889.773 290.257C889.765 291.477 889.631 292.693 889.373 293.886C889.106 295.048 888.693 296.171 888.144 297.229C887.641 298.286 886.965 299.252 886.144 300.086C885.34 300.882 884.362 301.479 883.286 301.83C884.074 301.911 884.835 302.162 885.516 302.567C886.197 302.971 886.782 303.519 887.23 304.173C888.07 305.731 888.465 307.491 888.373 309.259V322.26H882.943V309.259C882.973 308.654 882.882 308.05 882.676 307.481C882.47 306.912 882.153 306.39 881.743 305.944C881.109 305.439 880.381 305.066 879.601 304.845C878.821 304.624 878.005 304.561 877.2 304.658H861.913V322.26H856.427V277.684ZM820.423 306.716L812.337 284.514L804.221 306.716H820.423ZM792.363 322.26L808.65 277.684H815.794L832.224 322.26H826.081L822.537 312.488H802.164L798.592 322.26H792.363ZM721.156 277.684H727.185L735.386 315.431L743.616 277.684H751.816L760.074 315.431L768.275 277.684H774.361L764.503 322.26H756.302L747.73 284.514L739.158 322.26H730.957L721.156 277.684ZM663.322 322.26V277.684H668.808V296.458H691.668V277.684H697.125V322.26H691.496V302.258H668.637V322.26H663.322ZM603.087 277.684H638.12V283.399H623.347V322.203H617.86V283.456H603.087V277.684ZM575.313 306.716L567.198 284.514L559.083 306.716H575.313ZM547.196 322.26L563.626 277.684H570.77L587.172 322.26H580.942L577.371 312.488H556.997L553.454 322.26H547.196ZM508.878 296.743C509.795 296.737 510.708 296.612 511.593 296.372C512.615 296.165 513.587 295.757 514.45 295.172C515.316 294.591 516.047 293.831 516.593 292.943C517.203 291.895 517.51 290.698 517.479 289.485C517.504 288.508 517.328 287.536 516.965 286.628C516.691 285.892 516.228 285.242 515.622 284.742C515.04 284.267 514.355 283.934 513.622 283.771C512.815 283.593 511.99 283.507 511.164 283.513H495.191V296.8L508.878 296.743ZM495.191 302.458V316.488H511.05C512.105 316.502 513.158 316.406 514.193 316.202C515.102 316.021 515.966 315.662 516.736 315.145C517.46 314.666 518.034 313.992 518.393 313.202C518.82 312.241 519.025 311.196 518.994 310.145C519.075 308.689 518.684 307.246 517.879 306.03C517.125 305.042 516.145 304.248 515.022 303.715C513.979 303.202 512.859 302.864 511.707 302.715C510.762 302.563 509.807 302.477 508.85 302.458H495.191ZM489.705 322.232V277.684H511.05C514.402 277.51 517.694 278.624 520.251 280.799C521.392 281.906 522.285 283.242 522.872 284.72C523.458 286.198 523.723 287.783 523.651 289.371C523.672 290.627 523.428 291.873 522.937 293.029C522.475 294.055 521.879 295.016 521.165 295.886C520.483 296.72 519.684 297.451 518.794 298.058C518.014 298.583 517.181 299.024 516.308 299.372C517.369 299.671 518.401 300.063 519.394 300.544C520.45 301.035 521.416 301.702 522.251 302.515C523.151 303.32 523.888 304.29 524.423 305.373C525.03 306.768 525.323 308.28 525.28 309.802C525.355 311.472 525.049 313.137 524.386 314.672C523.722 316.206 522.719 317.57 521.451 318.66C518.483 320.969 514.775 322.117 511.021 321.889L489.705 322.232ZM435.414 319.031C437.382 319.09 439.336 318.69 441.122 317.862C442.907 317.033 444.475 315.8 445.701 314.259L434.271 301.115C431.894 302.466 429.768 304.215 427.985 306.287C426.855 307.762 426.251 309.573 426.27 311.43C426.236 312.484 426.447 313.531 426.889 314.489C427.33 315.446 427.989 316.287 428.813 316.945C430.661 318.367 432.94 319.114 435.271 319.06L435.414 319.031ZM436.671 282.885C435.859 282.842 435.047 282.961 434.281 283.236C433.516 283.511 432.813 283.935 432.214 284.485C431.676 285.028 431.256 285.676 430.98 286.389C430.705 287.102 430.58 287.865 430.613 288.628C430.609 289.87 430.903 291.095 431.471 292.2C432.451 293.856 433.61 295.399 434.928 296.8C437.04 295.566 438.964 294.036 440.643 292.257C441.661 291.127 442.23 289.663 442.243 288.142C442.279 287.436 442.165 286.729 441.909 286.069C441.653 285.41 441.26 284.811 440.757 284.314C439.635 283.32 438.168 282.807 436.671 282.885ZM453.159 322.889L447.872 316.831C446.308 318.695 444.34 320.178 442.117 321.168C439.894 322.158 437.475 322.63 435.043 322.546C432.749 322.584 430.476 322.116 428.385 321.174C426.538 320.355 424.956 319.039 423.813 317.374C422.693 315.683 422.124 313.686 422.184 311.659C422.149 309.203 422.922 306.803 424.384 304.83C426.449 302.276 428.968 300.125 431.814 298.486C430.331 296.876 429.063 295.08 428.042 293.143C427.352 291.677 426.991 290.077 426.985 288.457C426.934 287.242 427.142 286.03 427.595 284.902C428.048 283.774 428.736 282.755 429.613 281.913C431.549 280.192 434.084 279.299 436.671 279.427C439.058 279.298 441.403 280.096 443.215 281.656C444.028 282.457 444.662 283.421 445.076 284.485C445.489 285.549 445.673 286.688 445.615 287.828C445.655 289.897 444.978 291.916 443.7 293.543C441.809 295.742 439.57 297.614 437.071 299.086L447.587 311.059C448.85 308.48 449.717 305.725 450.158 302.887L453.33 303.973C452.766 307.388 451.626 310.683 449.958 313.716L455.416 319.946L453.159 322.889ZM347.691 289.371C347.668 290.197 347.858 291.015 348.244 291.746C348.629 292.477 349.197 293.096 349.891 293.543C351.578 294.643 353.417 295.49 355.349 296.058C357.549 296.715 359.921 297.343 362.493 297.886C364.92 298.427 367.299 299.162 369.608 300.086C371.643 300.881 373.499 302.076 375.065 303.601C375.81 304.389 376.388 305.319 376.766 306.335C377.144 307.351 377.314 308.433 377.265 309.516C377.403 311.456 377.055 313.4 376.251 315.171C375.448 316.943 374.215 318.485 372.665 319.66C368.762 322.121 364.183 323.29 359.578 323.003C357.457 323.039 355.341 322.779 353.292 322.232C351.648 321.802 350.078 321.127 348.634 320.231C347.387 319.458 346.268 318.494 345.319 317.374C344.466 316.37 343.737 315.267 343.148 314.088C341.848 311.324 341.156 308.313 341.119 305.258H347.148C347.148 305.258 347.148 305.544 347.148 306.173C347.175 306.934 347.28 307.691 347.463 308.43C347.685 309.414 348.01 310.372 348.434 311.288C348.951 312.358 349.658 313.326 350.52 314.145C351.545 315.125 352.748 315.901 354.063 316.431C355.818 317.077 357.681 317.378 359.549 317.317C367.322 317.317 371.208 314.64 371.208 309.287C371.221 308.54 371.024 307.804 370.641 307.163C370.257 306.521 369.701 306 369.036 305.658C367.316 304.699 365.469 303.987 363.55 303.544C361.35 302.973 358.978 302.43 356.435 301.887C353.992 301.366 351.609 300.6 349.32 299.601C347.233 298.715 345.362 297.389 343.834 295.715C342.3 293.878 341.514 291.532 341.633 289.143C341.6 287.299 342.043 285.478 342.919 283.856C343.775 282.273 345 280.921 346.491 279.913C348.232 278.762 350.169 277.939 352.206 277.484C354.636 276.888 357.133 276.6 359.635 276.627C361.732 276.592 363.825 276.822 365.864 277.313C367.458 277.73 368.987 278.365 370.408 279.199C371.575 279.898 372.618 280.786 373.494 281.828C374.261 282.75 374.904 283.768 375.408 284.856C376.522 287.469 376.992 290.311 376.78 293.143H370.75C371.052 291.218 370.845 289.248 370.15 287.428C369.843 286.701 369.439 286.019 368.95 285.399C368.389 284.696 367.701 284.105 366.922 283.656C365.962 283.105 364.934 282.682 363.864 282.399C362.481 282.056 361.06 281.892 359.635 281.913C356.489 281.678 353.346 282.416 350.634 284.028C349.712 284.59 348.955 285.385 348.438 286.333C347.922 287.281 347.664 288.349 347.691 289.428V289.371ZM316.86 277.627V283.342H291.657V295.972H316.031V301.687H291.657V316.374H317.574V322.089H286.142V277.684L316.86 277.627ZM237.395 277.627V316.46H262.083V322.174H231.908V277.684L237.395 277.627ZM199.591 277.627H205.077V322.203H199.591V277.627ZM139.356 277.627H174.303V283.342H159.616V322.146H154.129V283.456H139.356V277.627Z" fill="white"/>
</g>
<defs>
<clipPath id="clip0_1743_671">
<rect width="954.722" height="323.06" fill="white"/>
</clipPath>
</defs>
</svg>
